<svg width="392" height="162" viewBox="61 172 385 164" fill="none" xmlns="http://www.w3.org/2000/svg">
<path d="M121.551 213.388H154.535V302.554H121.551V213.388Z" fill="white"/>
<path d="M157.696 273.733H189.315C189.853 281.074 194.381 285.464 202.752 285.464C209.22 285.464 214.106 283.197 214.106 277.763C214.106 270.423 203.794 269.559 192.297 267.796C177.278 265.529 159.996 261.499 159.996 239.117C159.996 220.766 178.679 210.619 200.489 210.619C227.544 210.619 241.7 220.766 242.922 238.254H211.843C210.98 231.597 206.094 230.194 200.668 230.194C195.782 230.194 191.255 232.101 191.255 236.671C191.255 241.744 199.447 242.788 209.579 244.191C225.819 246.458 246.407 250.128 246.407 274.956C246.407 296.294 227.041 305.542 202.573 305.542C176.2 305.542 157.876 294.171 157.696 273.733Z" fill="white"/>
<path d="M247.958 258.153C247.958 231.057 267.18 210.763 296.858 210.763C326.536 210.763 345.399 231.057 345.399 258.153C345.399 285.248 326.536 305.362 296.858 305.362C267.18 305.362 247.958 285.248 247.958 258.153ZM311.841 258.153C311.841 243.112 306.595 232.964 296.463 232.964C286.331 232.964 281.444 243.112 281.444 258.153C281.444 273.194 286.331 283.341 296.463 283.341C306.595 283.341 311.841 273.194 311.841 258.153Z" fill="white"/>
<path d="M348.559 258.153C348.559 231.057 367.782 210.763 397.46 210.763C427.138 210.763 446.001 231.057 446.001 258.153C446.001 285.248 427.138 305.362 397.46 305.362C367.782 305.362 348.559 285.248 348.559 258.153ZM412.478 258.153C412.478 243.112 407.233 232.964 397.1 232.964C386.968 232.964 382.082 243.112 382.082 258.153C382.082 273.194 386.968 283.341 397.1 283.341C407.233 283.341 412.478 273.194 412.478 258.153Z" fill="white"/>
<path d="M80.1983 299.064C80.1983 309.715 75.3119 308.851 65 308.671V331.232C70.0661 332.276 78.0785 332.996 83.6835 332.996C92.9534 332.996 100.103 331.089 105.493 325.475C110.02 320.761 113.182 313.601 113.182 300.287V213.388H80.1983V299.064Z" fill="white"/>
<path d="M113.183 179.997H80.1997V205.006H113.183H154.574V179.997H113.183Z" fill="white"/>
</svg>
